Coordinates
version=1
nRows=11
nColumns=46
inDegrees=yes

Units are S.I. units (second, meters, Newtons, ...)
Angles are in degrees.

endheader
time	pelvis_tilt	pelvis_list	pelvis_rotation	pelvis_tx	pelvis_ty	pelvis_tz	bb_angle	bb_tx	bb_ty	bb_tz	hip_flexion_r	hip_adduction_r	hip_rotation_r	knee_angle_r	knee_angle_r_beta	ankle_angle_r	subtalar_angle_r	mtp_angle_r	crank_angle_r	hip_flexion_l	hip_adduction_l	hip_rotation_l	knee_angle_l	knee_angle_l_beta	ankle_angle_l	subtalar_angle_l	mtp_angle_l	crank_angle_l	lumbar_extension	lumbar_bending	lumbar_rotation	arm_flex_r	arm_add_r	arm_rot_r	elbow_flex_r	pro_sup_r	wrist_flex_r	wrist_dev_r	arm_flex_l	arm_add_l	arm_rot_l	elbow_flex_l	pro_sup_l	wrist_flex_l	wrist_dev_l
      5.00000000	    -23.85578567	     -5.10162206	     -5.31845368	      0.42817616	      1.16429672	     -0.20907316	      0.00000000	      0.50000000	      0.00000000	      0.25000000	     69.72903113	      7.73208098	      3.09574992	     94.31903762	      1.64617775	     20.07045758	    -10.01453837	      0.00000000	      0.00000000	     23.56320474	    -13.77411889	     -5.97657011	     29.08182560	      0.50757361	    -21.10317658	      3.27264766	      0.00000000	      0.00000000	    -54.70915822	      0.39357504	     12.65431377	     55.06769372	    -42.51865035	     50.58184735	     85.10195840	     60.93538894	      0.00000000	      0.00000000	     49.52616983	    -19.37098645	     28.05730293	     67.38092914	     51.50296738	      0.00000000	      0.00000000
      5.00500000	    -24.11327569	     -4.58317483	     -5.36712496	      0.42756590	      1.16583530	     -0.20923249	      0.00000000	      0.50000000	      0.00000000	      0.25000000	     68.81184146	      7.42777141	      3.38499299	     91.65488362	      1.59967949	     21.50919779	    -10.61635518	      0.00000000	      0.00000000	     25.24580176	    -13.34222136	     -5.04731458	     32.18943954	      0.56181170	    -21.61727537	      2.29912912	      0.00000000	      0.00000000	    -54.96921229	      0.07233735	     12.50613410	     54.92998614	    -43.11602564	     50.06919141	     86.15084014	     60.98724776	      0.00000000	      0.00000000	     49.51854763	    -19.10143311	     27.47145055	     67.98877657	     51.58030863	      0.00000000	      0.00000000
      5.01000000	    -24.12138530	     -3.90114327	     -5.52108184	      0.42706020	      1.16749049	     -0.20864315	      0.00000000	      0.50000000	      0.00000000	      0.25000000	     67.62046225	      7.17950186	      3.84577526	     88.93696243	      1.55224282	     22.51278031	    -11.51160443	      0.00000000	      0.00000000	     26.66108578	    -12.82133738	     -4.41831484	     35.23982791	      0.61505102	    -22.39073745	      1.42490189	      0.00000000	      0.00000000	    -55.38832877	     -0.59828845	     12.19581485	     54.88688690	    -43.38981701	     49.58173389	     86.74156039	     60.99085913	      0.00000000	      0.00000000	     49.87609790	    -19.01393914	     26.96059598	     68.36050755	     51.60008300	      0.00000000	      0.00000000
      5.01500000	    -24.45513421	     -3.33015962	     -5.67146592	      0.42652637	      1.16863226	     -0.20836322	      0.00000000	      0.50000000	      0.00000000	      0.25000000	     66.74536768	      6.94409629	      4.17018232	     86.05360994	      1.50191883	     23.03420501	    -12.54868184	      0.00000000	      0.00000000	     28.49639714	    -12.37977556	     -3.64349147	     38.22570358	      0.66716439	    -23.48664229	      0.79009034	      0.00000000	      0.00000000	    -55.58106360	     -1.20448256	     12.27760153	     53.73350310	    -44.42707695	     48.11767171	     88.47132320	     60.96765343	      0.00000000	      0.00000000	     49.59056491	    -18.33932007	     25.71542235	     69.54189374	     51.74535284	      0.00000000	      0.00000000
      5.02000000	    -24.46725298	     -2.68101620	     -5.92398918	      0.42623119	      1.17025442	     -0.20781653	      0.00000000	      0.50000000	      0.00000000	      0.25000000	     65.51249385	      6.75860500	      4.75038015	     83.14805649	      1.45120735	     23.45635698	    -12.68983511	      0.00000000	      0.00000000	     29.90706833	    -11.92878260	     -3.17473709	     40.98584162	      0.71533788	    -25.03272220	      0.68788594	      0.00000000	      0.00000000	    -55.94102024	     -1.94663089	     12.02608086	     53.58006769	    -44.55202149	     47.67842920	     88.74153537	     60.92086612	      0.00000000	      0.00000000	     49.85832771	    -18.27546162	     25.55181324	     69.75569186	     51.77881074	      0.00000000	      0.00000000
      5.02500000	    -24.49912949	     -1.99716770	     -6.15243268	      0.42587512	      1.17153603	     -0.20730439	      0.00000000	      0.50000000	      0.00000000	      0.25000000	     64.34566256	      6.49366923	      5.34544698	     80.28478543	      1.40123384	     23.49020755	    -13.00806676	      0.00000000	      0.00000000	     31.31043497	    -11.34389783	     -2.71227632	     43.64543804	      0.76175660	    -26.44418606	      0.06268010	      0.00000000	      0.00000000	    -56.24612895	     -2.74445200	     11.74490201	     53.33844505	    -44.73319709	     47.27920001	     89.05073678	     60.88815154	      0.00000000	      0.00000000	     50.14498880	    -18.19616969	     25.37568749	     70.15195426	     51.83655803	      0.00000000	      0.00000000
      5.03000000	    -24.44203501	     -1.29681691	     -6.39539678	      0.42563316	      1.17280386	     -0.20676892	      0.00000000	      0.50000000	      0.00000000	      0.25000000	     63.12410095	      6.18997051	      6.06663681	     77.46901723	      1.35208942	     23.17836981	    -13.03162598	      0.00000000	      0.00000000	     32.49842103	    -10.61439473	     -2.13477194	     46.08743517	      0.80437749	    -27.76473697	     -0.68533919	      0.00000000	      0.00000000	    -56.58996104	     -3.59294617	     11.33622588	     53.12677741	    -44.87980022	     46.96089281	     89.29939805	     60.86400358	      0.00000000	      0.00000000	     50.34778671	    -18.12146000	     25.26544206	     70.51517755	     51.89121579	      0.00000000	      0.00000000
      5.03500000	    -24.35100308	     -0.56179567	     -6.62813617	      0.42550011	      1.17387621	     -0.20650445	      0.00000000	      0.50000000	      0.00000000	      0.25000000	     61.94104962	      5.71903055	      6.73502816	     74.75402519	      1.30470387	     22.61651591	    -12.74911266	      0.00000000	      0.00000000	     33.62398021	     -9.84175732	     -1.76084424	     48.48673646	      0.84625319	    -28.95265068	     -1.52787299	      0.00000000	      0.00000000	    -56.93578634	     -4.35534961	     10.88807205	     52.92780482	    -44.90874971	     46.65405802	     89.58203932	     60.84267542	      0.00000000	      0.00000000	     50.41108307	    -18.16959426	     25.16499229	     70.90576003	     51.95324921	      0.00000000	      0.00000000
      5.04000000	    -24.14184087	      0.24561186	     -6.92550385	      0.42567313	      1.17501926	     -0.20650302	      0.00000000	      0.50000000	      0.00000000	      0.25000000	     60.62411765	      5.17223661	      7.54778265	     72.06956706	      1.25785124	     21.99561199	    -12.18119202	      0.00000000	      0.00000000	     34.51029766	     -9.02460392	     -1.56576556	     50.77043405	      0.88611124	    -29.63093051	     -1.54668247	      0.00000000	      0.00000000	    -57.32093385	     -5.24863393	     10.33472037	     52.78870271	    -44.97128809	     46.64054966	     89.58759893	     60.83923024	      0.00000000	      0.00000000	     50.36449852	    -18.04452599	     25.22926022	     70.97830443	     51.97359056	      0.00000000	      0.00000000
      5.04500000	    -23.92319768	      0.87393924	     -7.18197487	      0.42550952	      1.17581803	     -0.20622923	      0.00000000	      0.50000000	      0.00000000	      0.25000000	     59.36008157	      4.66743145	      8.03468703	     69.46307492	      1.21235937	     20.95287085	    -11.54967143	      0.00000000	      0.00000000	     35.50055816	     -8.39947676	     -1.44730930	     53.29338470	      0.93014503	    -30.17931340	     -2.63318612	      0.00000000	      0.00000000	    -57.77618337	     -6.09340383	      9.88100426	     52.76193712	    -44.92743417	     46.35646647	     89.74667822	     60.81063541	      0.00000000	      0.00000000	     50.83545061	    -18.13990830	     25.08731440	     71.48450754	     52.03808813	      0.00000000	      0.00000000
      5.05000000	    -23.64481637	      1.56887202	     -7.27933871	      0.42557466	      1.17658891	     -0.20620060	      0.00000000	      0.50000000	      0.00000000	      0.25000000	     57.97369139	      3.97434361	      8.52837927	     66.84112476	      1.16659770	     19.92473502	    -11.17390148	      0.00000000	      0.00000000	     36.35052743	     -7.57137215	     -1.21871410	     55.63804161	      0.97106702	    -30.52338534	     -3.40262889	      0.00000000	      0.00000000	    -58.25490779	     -6.85960680	      9.19636738	     52.55711830	    -44.89286239	     46.05359437	     89.91173270	     60.78008276	      0.00000000	      0.00000000	     50.93142428	    -18.23684295	     25.11275895	     71.96548446	     52.12350036	      0.00000000	      0.00000000
